<svg xmlns="http://www.w3.org/2000/svg" width="1024" height="1024" viewBox="0 0 1024 1024"><defs>
  <radialGradient id="sfondo" cx="35%" cy="25%" r="90%">
    <stop offset="0" stop-color="#1D3163"/><stop offset="0.55" stop-color="#0F1B3D"/><stop offset="1" stop-color="#070D22"/>
  </radialGradient>
  <linearGradient id="strada" x1="200" y1="760" x2="800" y2="280" gradientUnits="userSpaceOnUse">
    <stop offset="0" stop-color="#1E8BFF"/><stop offset="0.48" stop-color="#43B0FF"/><stop offset="0.8" stop-color="#FFA24A"/><stop offset="1" stop-color="#FF7A1A"/>
  </linearGradient>
  <linearGradient id="punta" x1="0" y1="0" x2="1" y2="1">
    <stop offset="0" stop-color="#FFB45E"/><stop offset="1" stop-color="#FF6A00"/>
  </linearGradient>
  <filter id="alone" x="-30%" y="-30%" width="160%" height="160%"><feGaussianBlur stdDeviation="24"/></filter>
</defs><g transform="translate(512 512) scale(0.82) translate(-512 -512)">

<path d="M 730.3 328.8 A 285 285 0 1 0 797.0 512.0 L 690 512" fill="none" stroke="url(#strada)" stroke-width="150" stroke-linecap="round" stroke-linejoin="round" opacity="0.5" filter="url(#alone)"/>
<path d="M 730.3 328.8 A 285 285 0 1 0 797.0 512.0 L 690 512" fill="none" stroke="url(#strada)" stroke-width="128" stroke-linecap="round" stroke-linejoin="round"/>
<path d="M 730.3 328.8 A 285 285 0 1 0 797.0 512.0" fill="none" stroke="#FFFFFF" stroke-opacity="0.9" stroke-width="12" stroke-linecap="round" stroke-dasharray="44 48"/>
<path d="M 611.1 408.9 L 494.4 661.4 L 462.6 557.4 L 358.6 525.6 Z" fill="url(#punta)" stroke="#FFFFFF" stroke-width="20" stroke-linejoin="round" filter="url(#alone)" opacity="0.6"/>
<path d="M 611.1 408.9 L 494.4 661.4 L 462.6 557.4 L 358.6 525.6 Z" fill="url(#punta)" stroke="#FFFFFF" stroke-width="20" stroke-linejoin="round"/>
<path d="M 503.4 465.7 L 468.7 535.2 L 491.0 535.2 L 479.9 589.7 L 517.1 516.6 L 494.8 516.6 Z" fill="#0F1B3D"/>
</g></svg>